{
  "asset": {
    "version": "2.0",
    "generator": "THREE.GLTFExporter r164"
  },
  "scenes": [
    {
      "name": "Scene",
      "nodes": [
        5,
        6
      ]
    }
  ],
  "scene": 0,
  "nodes": [
    {
      "name": "Plane002",
      "mesh": 0
    },
    {
      "name": "Plane002_1",
      "mesh": 1
    },
    {
      "name": "Plane002_2",
      "mesh": 2
    },
    {
      "matrix": [
        0.18007567386292725,
        -0.0000014889857115517132,
        -0.00016531904507917334,
        0,
        0.0003482136275667044,
        0.024995481913493992,
        0.3790705718365416,
        0,
        0.000019428569512295702,
        -0.3717201266176277,
        0.024510784077603643,
        0,
        -6.1964826583862305,
        3.493011474609375,
        -0.6386961340904236,
        1
      ],
      "name": "Plane001",
      "extras": {
        "name": "Plane.001"
      },
      "children": [
        0,
        1,
        2
      ]
    },
    {
      "matrix": [
        0.005643742074708163,
        0.0041102005762162054,
        0.000045650326569121136,
        0,
        0.0000933154462456095,
        -0.00005437853014703553,
        -0.006640579330473285,
        0,
        -0.004113130123381544,
        0.005648921108715307,
        -0.00010405711766205537,
        0,
        -6.196643352508545,
        3.8523480892181396,
        -0.6666226387023926,
        1
      ],
      "name": "Cylinder001",
      "extras": {
        "name": "Cylinder.001"
      },
      "mesh": 3
    },
    {
      "matrix": [
        1,
        0,
        0,
        0,
        0,
        1,
        0,
        0,
        0,
        0,
        1,
        0,
        6.152793605573036,
        0,
        0,
        1
      ],
      "name": "phone.glb",
      "children": [
        3,
        4
      ]
    },
    {
      "matrix": [
        1,
        0,
        0,
        0,
        0,
        1,
        0,
        0,
        0,
        0,
        1,
        0,
        1.0289115940418467,
        4.265375772479932,
        0,
        1
      ],
      "name": "AmbientLight"
    }
  ],
  "bufferViews": [
    {
      "buffer": 0,
      "byteOffset": 0,
      "byteLength": 4908,
      "target": 34962,
      "byteStride": 12
    },
    {
      "buffer": 0,
      "byteOffset": 4908,
      "byteLength": 4908,
      "target": 34962,
      "byteStride": 12
    },
    {
      "buffer": 0,
      "byteOffset": 9816,
      "byteLength": 3272,
      "target": 34962,
      "byteStride": 8
    },
    {
      "buffer": 0,
      "byteOffset": 13088,
      "byteLength": 1800,
      "target": 34963
    },
    {
      "buffer": 0,
      "byteOffset": 14888,
      "byteLength": 1272,
      "target": 34962,
      "byteStride": 12
    },
    {
      "buffer": 0,
      "byteOffset": 16160,
      "byteLength": 1272,
      "target": 34962,
      "byteStride": 12
    },
    {
      "buffer": 0,
      "byteOffset": 17432,
      "byteLength": 848,
      "target": 34962,
      "byteStride": 8
    },
    {
      "buffer": 0,
      "byteOffset": 18280,
      "byteLength": 576,
      "target": 34963
    },
    {
      "buffer": 0,
      "byteOffset": 18856,
      "byteLength": 216,
      "target": 34962,
      "byteStride": 12
    },
    {
      "buffer": 0,
      "byteOffset": 19072,
      "byteLength": 216,
      "target": 34962,
      "byteStride": 12
    },
    {
      "buffer": 0,
      "byteOffset": 19288,
      "byteLength": 144,
      "target": 34962,
      "byteStride": 8
    },
    {
      "buffer": 0,
      "byteOffset": 19432,
      "byteLength": 96,
      "target": 34963
    },
    {
      "buffer": 0,
      "byteOffset": 19528,
      "byteLength": 2304,
      "target": 34962,
      "byteStride": 12
    },
    {
      "buffer": 0,
      "byteOffset": 21832,
      "byteLength": 2304,
      "target": 34962,
      "byteStride": 12
    },
    {
      "buffer": 0,
      "byteOffset": 24136,
      "byteLength": 1536,
      "target": 34962,
      "byteStride": 8
    },
    {
      "buffer": 0,
      "byteOffset": 25672,
      "byteLength": 744,
      "target": 34963
    }
  ],
  "buffers": [
    {
      "byteLength": 26416,
      "uri": "data:application/octet-stream;base64,"
    }
  ],
  "accessors": [
    {
      "bufferView": 0,
      "componentType": 5126,
      "count": 409,
      "max": [
        1,
        0.0006455460097640753,
        0.7887841463088989
      ],
      "min": [
        -1.000003457069397,
        -0.057872284203767776,
        -1
      ],
      "type": "VEC3"
    },
    {
      "bufferView": 1,
      "componentType": 5126,
      "count": 409,
      "max": [
        1,
        0.9999708533287048,
        1
      ],
      "min": [
        -1,
        -1,
        -1
      ],
      "type": "VEC3"
    },
    {
      "bufferView": 2,
      "componentType": 5126,
      "count": 409,
      "max": [
        1,
        1
      ],
      "min": [
        0,
        0
      ],
      "type": "VEC2"
    },
    {
      "bufferView": 3,
      "componentType": 5123,
      "count": 900,
      "max": [
        408
      ],
      "min": [
        0
      ],
      "type": "SCALAR"
    },
    {
      "bufferView": 4,
      "componentType": 5126,
      "count": 106,
      "max": [
        0.9634300470352173,
        -0.010617705062031746,
        0.7452793717384338
      ],
      "min": [
        -0.9634298086166382,
        -0.011263251304626465,
        -0.9363452196121216
      ],
      "type": "VEC3"
    },
    {
      "bufferView": 5,
      "componentType": 5126,
      "count": 106,
      "max": [
        0,
        -0.9999992847442627,
        0.0012005333555862308
      ],
      "min": [
        0,
        -1,
        0
      ],
      "type": "VEC3"
    },
    {
      "bufferView": 6,
      "componentType": 5126,
      "count": 106,
      "max": [
        1,
        0.75
      ],
      "min": [
        0,
        0
      ],
      "type": "VEC2"
    },
    {
      "bufferView": 7,
      "componentType": 5123,
      "count": 288,
      "max": [
        105
      ],
      "min": [
        0
      ],
      "type": "SCALAR"
    },
    {
      "bufferView": 8,
      "componentType": 5126,
      "count": 18,
      "max": [
        1,
        0.0006455460097640753,
        0.75
      ],
      "min": [
        -1,
        0,
        0.7452793717384338
      ],
      "type": "VEC3"
    },
    {
      "bufferView": 9,
      "componentType": 5126,
      "count": 18,
      "max": [
        0,
        -0.9907788634300232,
        -0.13548941910266876
      ],
      "min": [
        0,
        -0.9907788634300232,
        -0.13548941910266876
      ],
      "type": "VEC3"
    },
    {
      "bufferView": 10,
      "componentType": 5126,
      "count": 18,
      "max": [
        1,
        0.875
      ],
      "min": [
        0,
        0.75
      ],
      "type": "VEC2"
    },
    {
      "bufferView": 11,
      "componentType": 5123,
      "count": 48,
      "max": [
        17
      ],
      "min": [
        0
      ],
      "type": "SCALAR"
    },
    {
      "bufferView": 12,
      "componentType": 5126,
      "count": 192,
      "max": [
        1,
        1,
        1
      ],
      "min": [
        -1,
        -1,
        -1
      ],
      "type": "VEC3"
    },
    {
      "bufferView": 13,
      "componentType": 5126,
      "count": 192,
      "max": [
        0.9951847195625305,
        1,
        0.9951847195625305
      ],
      "min": [
        -0.9951847195625305,
        -0.9999999403953552,
        -0.9951847195625305
      ],
      "type": "VEC3"
    },
    {
      "bufferView": 14,
      "componentType": 5126,
      "count": 192,
      "max": [
        1,
        0.9900000095367432
      ],
      "min": [
        0,
        0
      ],
      "type": "VEC2"
    },
    {
      "bufferView": 15,
      "componentType": 5123,
      "count": 372,
      "max": [
        191
      ],
      "min": [
        0
      ],
      "type": "SCALAR"
    }
  ],
  "materials": [
    {
      "pbrMetallicRoughness": {
        "baseColorFactor": [
          0.22025670111179352,
          0.22025670111179352,
          0.22025670111179352,
          1
        ],
        "metallicFactor": 0,
        "roughnessFactor": 0.5
      },
      "doubleSided": true,
      "name": "Material.009"
    },
    {
      "pbrMetallicRoughness": {
        "baseColorFactor": [
          0,
          0,
          0,
          1
        ],
        "metallicFactor": 0,
        "roughnessFactor": 0.5
      },
      "doubleSided": true,
      "name": "Material.010"
    },
    {
      "pbrMetallicRoughness": {
        "baseColorFactor": [
          0.800000011920929,
          0.800000011920929,
          0.800000011920929,
          1
        ],
        "metallicFactor": 0,
        "roughnessFactor": 0.5
      },
      "doubleSided": true,
      "name": "Material.011"
    },
    {
      "pbrMetallicRoughness": {
        "baseColorFactor": [
          0,
          0,
          0,
          1
        ],
        "metallicFactor": 0,
        "roughnessFactor": 0.5
      },
      "doubleSided": true,
      "name": "Material.021"
    }
  ],
  "meshes": [
    {
      "primitives": [
        {
          "mode": 4,
          "attributes": {
            "POSITION": 0,
            "NORMAL": 1,
            "TEXCOORD_0": 2
          },
          "indices": 3,
          "material": 0
        }
      ]
    },
    {
      "primitives": [
        {
          "mode": 4,
          "attributes": {
            "POSITION": 4,
            "NORMAL": 5,
            "TEXCOORD_0": 6
          },
          "indices": 7,
          "material": 1
        }
      ]
    },
    {
      "primitives": [
        {
          "mode": 4,
          "attributes": {
            "POSITION": 8,
            "NORMAL": 9,
            "TEXCOORD_0": 10
          },
          "indices": 11,
          "material": 2
        }
      ]
    },
    {
      "primitives": [
        {
          "mode": 4,
          "attributes": {
            "POSITION": 12,
            "NORMAL": 13,
            "TEXCOORD_0": 14
          },
          "indices": 15,
          "material": 3
        }
      ]
    }
  ]
}